<svg width="27" height="33" viewBox="0 0 27 33" fill="none" xmlns="http://www.w3.org/2000/svg">
<path d="M0 33V22.5C0 20.425 0.73125 18.6562 2.19375 17.1937C3.65625 15.7312 5.425 15 7.5 15H9V3C9 2.175 9.29375 1.46875 9.88125 0.881249C10.4688 0.293749 11.175 -1.3113e-06 12 -1.3113e-06H15C15.825 -1.3113e-06 16.5313 0.293749 17.1188 0.881249C17.7063 1.46875 18 2.175 18 3V15H19.5C21.575 15 23.3438 15.7312 24.8063 17.1937C26.2688 18.6562 27 20.425 27 22.5V33H0ZM3 30H6V25.5C6 25.075 6.14375 24.7187 6.43125 24.4312C6.71875 24.1437 7.075 24 7.5 24C7.925 24 8.28125 24.1437 8.56875 24.4312C8.85625 24.7187 9 25.075 9 25.5V30H12V25.5C12 25.075 12.1438 24.7187 12.4313 24.4312C12.7188 24.1437 13.075 24 13.5 24C13.925 24 14.2813 24.1437 14.5688 24.4312C14.8563 24.7187 15 25.075 15 25.5V30H18V25.5C18 25.075 18.1438 24.7187 18.4313 24.4312C18.7188 24.1437 19.075 24 19.5 24C19.925 24 20.2813 24.1437 20.5688 24.4312C20.8563 24.7187 21 25.075 21 25.5V30H24V22.5C24 21.25 23.5625 20.1875 22.6875 19.3125C21.8125 18.4375 20.75 18 19.5 18H7.5C6.25 18 5.1875 18.4375 4.3125 19.3125C3.4375 20.1875 3 21.25 3 22.5V30ZM15 15V3H12V15H15Z" fill="#13A4EC"/>
</svg>
